<svg xmlns="http://www.w3.org/2000/svg" version="1.1" xmlnsXlink="http://www.w3.org/1999/xlink" xmlnsSvgjs="http://svgjs.dev/svgjs" width="1000" height="260" viewBox="0 0 1000 260">
	<g transform="matrix(1,0,0,1,-0.6060606060606233,0.2764032526026199)">
		<svg viewBox="0 0 396 103" data-background-color="#000000" preserveAspectRatio="xMidYMid meet" height="260" width="1000" xmlns="http://www.w3.org/2000/svg" xmlnsXlink="http://www.w3.org/1999/xlink">
			<g id="tight-bounds" transform="matrix(1,0,0,1,0.2400000000000091,-0.10949821160795636)">
				<svg viewBox="0 0 395.52 103.21899642321588" height="103.21899642321588" width="395.52">
					<g>
						<svg viewBox="0 0 555.3405374552418 144.92741947122622" height="103.21899642321588" width="395.52">
							<g transform="matrix(1,0,0,1,159.82053745524186,40.92065160175868)">
								<svg viewBox="0 0 395.52 63.08611626770885" height="63.08611626770885" width="395.52">
									<g id="textblocktransform">
										<svg viewBox="0 0 395.52 63.08611626770885" height="63.08611626770885" width="395.52" id="textblock">
											<g>
												<svg viewBox="0 0 395.52 63.08611626770885" height="63.08611626770885" width="395.52">
													<g transform="matrix(1,0,0,1,0,0)">
														<svg width="395.52" viewBox="1.05 -32.3 204.67999999999998 32.65" height="63.08611626770885" data-palette-color="#89939e">
															<path d="M44.25-32.05L32.75 0 28.6 0 22.35-18.6 22-18.6 15.4 0 11.25 0 1.05-32.05 5.05-32.05 5.6-28.95 13.4-4.45 13.75-4.45 20.65-23.95 17.95-32.05 22.05-32.05 22.8-28.6 30.7-4.45 31-4.45 39.7-28.75 40.45-32.05 44.25-32.05ZM57.7-3L64.35-3.2 64.65-2.9 64.3 0 49.15 0 49.3-7.5 49.15-24.9 64.4-24.9 64.65-24.6 64.35-21.7 58.05-21.9 52.85-21.85 52.8-14.3 57.75-14.25 62.1-14.4 62.35-14.05 62.05-11.1 57.45-11.25 52.8-11.2 52.75-7.8 52.8-3.05 57.7-3ZM82.6-12.95Q88.15-11.85 88.15-7.05L88.15-7.05Q88.15-3.45 85.35-1.65 82.55 0.15 77.15 0.15L77.15 0.15Q73.9 0.15 70.9 0L70.9 0 71.05-7.5 70.9-24.9 78.7-24.95Q82.45-24.95 84.52-23.38 86.6-21.8 86.6-18.9L86.6-18.9Q86.6-16.75 85.55-15.25 84.5-13.75 82.6-12.95L82.6-12.95ZM82.65-18.45Q82.65-20.3 81.45-21.15 80.25-22 77.6-22L77.6-22 74.55-22 74.5-14.3 78.95-14.15Q80.8-14.55 81.72-15.58 82.65-16.6 82.65-18.45L82.65-18.45ZM77.6-2.7Q80.85-2.7 82.57-3.83 84.3-4.95 84.3-7.15L84.3-7.15Q84.3-8.95 83.1-9.95 81.9-10.95 79.45-11.3L79.45-11.3 74.5-11.25 74.45-7.8 74.55-2.85Q76.1-2.7 77.6-2.7L77.6-2.7ZM103.79-32.3Q107.24-32.3 110.94-30.8L110.94-30.8 110.29-26.95 109.59-26.75Q108.14-27.85 106.52-28.45 104.89-29.05 103.29-29.05L103.29-29.05Q101.44-29.05 100.07-28.3 98.69-27.55 97.97-26.35 97.24-25.15 97.24-23.85L97.24-23.85Q97.24-22.5 98.07-21.48 98.89-20.45 100.14-19.7 101.39-18.95 103.54-17.9L103.54-17.9Q106.24-16.65 107.89-15.58 109.54-14.5 110.72-12.85 111.89-11.2 111.89-8.85L111.89-8.85Q111.89-6.35 110.54-4.25 109.19-2.15 106.74-0.9 104.29 0.35 101.14 0.35L101.14 0.35Q99.04 0.35 96.77-0.23 94.49-0.8 92.54-1.9L92.54-1.9 93.04-6 93.59-6.25Q95.34-4.55 97.47-3.73 99.59-2.9 101.54-2.9L101.54-2.9Q103.44-2.9 104.92-3.65 106.39-4.4 107.17-5.65 107.94-6.9 107.94-8.3L107.94-8.3Q107.94-10.4 106.34-11.68 104.74-12.95 101.49-14.45L101.49-14.45Q98.84-15.75 97.24-16.78 95.64-17.8 94.49-19.43 93.34-21.05 93.34-23.4L93.34-23.4Q93.34-25.85 94.67-27.9 95.99-29.95 98.37-31.13 100.74-32.3 103.79-32.3L103.79-32.3ZM133.29-24.9L133.49-24.6 133.24-21.45 128.59-21.8 126.09-21.8 125.94-7.8 126.09 0 122.34 0 122.49-7.5 122.39-21.8 119.89-21.8 115.14-21.45 114.84-21.8 115.14-24.9 133.29-24.9ZM147.39-25.2Q152.84-25.2 155.76-22 158.69-18.8 158.69-12.95L158.69-12.95Q158.69-6.6 155.56-3.13 152.44 0.35 146.64 0.35L146.64 0.35Q141.24 0.35 138.29-2.93 135.34-6.2 135.34-12.25L135.34-12.25Q135.34-18.45 138.49-21.83 141.64-25.2 147.39-25.2L147.39-25.2ZM147.04-22.05Q143.09-22.05 141.16-19.8 139.24-17.55 139.24-12.7L139.24-12.7Q139.24-7.5 141.14-5.15 143.04-2.8 146.94-2.8L146.94-2.8Q150.94-2.8 152.89-5.1 154.84-7.4 154.84-12.3L154.84-12.3Q154.84-17.35 152.91-19.7 150.99-22.05 147.04-22.05L147.04-22.05ZM176.89-10.05Q179.94-5.4 183.64-0.9L183.64-0.9 183.59-0.4Q181.49 0.25 180.14 0.35L180.14 0.35 179.49-0.05Q175.69-5.8 173.74-9.1L173.74-9.1 169.04-9.05 169.04-7.8 169.14 0 165.44 0 165.59-7.5 165.44-24.9 173.94-24.95Q177.89-24.95 180.01-23.1 182.14-21.25 182.14-17.75L182.14-17.75Q182.14-15.2 180.76-13.2 179.39-11.2 176.89-10.05L176.89-10.05ZM169.14-21.9L169.09-12.15 173.79-12Q178.24-13.25 178.24-17.45L178.24-17.45Q178.24-19.65 176.94-20.75 175.64-21.85 172.99-21.95L172.99-21.95 169.14-21.9ZM198.78-3L205.43-3.2 205.73-2.9 205.38 0 190.23 0 190.38-7.5 190.23-24.9 205.48-24.9 205.73-24.6 205.43-21.7 199.13-21.9 193.93-21.85 193.88-14.3 198.83-14.25 203.18-14.4 203.43-14.05 203.13-11.1 198.53-11.25 193.88-11.2 193.83-7.8 193.88-3.05 198.78-3Z" opacity="1" transform="matrix(1,0,0,1,0,0)" fill="#89939e" class="wordmark-text-0" data-fill-palette-color="primary" id="text-0">
															</path>
														</svg>
													</g>
												</svg>
											</g>
										</svg>
									</g>
								</svg>
							</g>
							<g>
								<svg viewBox="0 0 144.92741947122622 144.92741947122622" height="144.92741947122622" width="144.92741947122622">
									<g>
										<svg>
										</svg>
									</g>
									<g id="icon-0">
										<svg viewBox="0 0 144.92741947122622 144.92741947122622" height="144.92741947122622" width="144.92741947122622">
											<g>
												<rect width="131.7765980747631" height="131.7765980747631" x="6.575410698231565" y="6.575410698231565" fill="#dedede" data-fill-palette-color="accent">
												</rect>
												<rect width="131.7765980747631" height="131.7765980747631" x="13.150821396463124" y="5.329070518200751e-15" fill="#dedede" opacity="0.5" data-fill-palette-color="accent">
												</rect>
											</g>
											<g transform="matrix(1,0,0,1,18.786887709233028,32.60598553992458)">
												<svg viewBox="0 0 107.35364405276016 79.71544839137705" height="79.71544839137705" width="107.35364405276016">
													<g>
														<svg xmlns="http://www.w3.org/2000/svg" xmlnsXlink="http://www.w3.org/1999/xlink" version="1.1" x="0" y="0" viewBox="0 12.873 100 74.255" enable-background="new 0 0 100 100" xml:space="preserve" height="79.71544839137705" width="107.35364405276016" class="icon-z$-0" data-fill-palette-color="background" id="z$-0">
															<g fill="#000000" data-fill-palette-color="background">
																<g fill="#000000" data-fill-palette-color="background">
																	<path d="M0 12.873v74.255h100V12.873H0zM97.029 84.155H2.971V15.843h94.058V84.155z" fill="#000000" data-fill-palette-color="background">
																	</path>
																	<polygon points="79.841,67.305 83.047,74.18 85.831,72.889 82.594,65.948 88.732,65.842 74.441,52.042 75.484,72.025   " fill="#000000" data-fill-palette-color="background">
																	</polygon>
																	<path d="M65.781 23.512H14.686v38.102h51.095V23.512zM38.286 58.068H21.177v-4.258h17.109V58.068zM59.287 58.068H42.175v-4.258h17.112V58.068zM60.396 46.875H20.071v-1.188h40.326V46.875zM60.396 42.86H20.071v-1.188h40.326V42.86zM60.396 38.853H20.071v-1.189h40.326V38.853zM60.396 34.836H20.071v-1.188h40.326V34.836zM63.188 29.493H17.277v-4.257h45.911V29.493z" fill="#000000" data-fill-palette-color="background">
																	</path>
																</g>
															</g>
														</svg>
													</g>
												</svg>
											</g>
										</svg>
									</g>
								</svg>
							</g>
						</svg>
					</g>
					<defs>
					</defs>
				</svg>
				<rect width="395.52" height="103.21899642321588" fill="none" stroke="none" visibility="hidden">
				</rect>
			</g>
		</svg>
	</g>
</svg>
