<svg xmlns="http://www.w3.org/2000/svg" version="1.1" xmlns:xlink="http://www.w3.org/1999/xlink" xmlns:svgjs="http://svgjs.dev/svgjs" width="128" height="128" viewBox="0 0 128 128"><g transform="matrix(0.8046875,0,0,0.8046875,12.760752631578946,25.723194924171978)"><svg viewBox="0 0 95 71" data-background-color="#000000" preserveAspectRatio="xMidYMid meet" height="95" width="128" xmlns="http://www.w3.org/2000/svg" xmlns:xlink="http://www.w3.org/1999/xlink"><g id="tight-bounds" transform="matrix(1,0,0,1,-0.24049999999999727,0.050291725000008114)"><svg viewBox="0 0 95.481 70.89941655" height="70.89941655" width="95.481"><g><svg viewBox="0 0 95.481 70.89941655" height="70.89941655" width="95.481"><g><svg viewBox="0 0 95.481 70.89941655" height="70.89941655" width="95.481"><g id="textblocktransform"><svg viewBox="0 0 95.481 70.89941655" height="70.89941655" width="95.481" id="textblock"><g><svg viewBox="0 0 95.481 70.89941655" height="70.89941655" width="95.481"><g><svg viewBox="0 0 95.481 70.89941655" height="70.89941655" width="95.481"><g><svg xmlns="http://www.w3.org/2000/svg" xmlns:xlink="http://www.w3.org/1999/xlink" version="1.1" x="0" y="0" viewBox="0 12.873 100 74.255" enable-background="new 0 0 100 100" xml:space="preserve" height="70.89941655" width="95.481" class="icon-icon-0" data-fill-palette-color="accent" id="icon-0"><g fill="#dedede" data-fill-palette-color="accent"><g fill="#dedede" data-fill-palette-color="accent"><path d="M0 12.873v74.255h100V12.873H0zM97.029 84.155H2.971V15.843h94.058V84.155z" fill="#dedede" data-fill-palette-color="accent"></path><polygon points="79.841,67.305 83.047,74.18 85.831,72.889 82.594,65.948 88.732,65.842 74.441,52.042 75.484,72.025   " fill="#dedede" data-fill-palette-color="accent"></polygon><path d="M65.781 23.512H14.686v38.102h51.095V23.512zM38.286 58.068H21.177v-4.258h17.109V58.068zM59.287 58.068H42.175v-4.258h17.112V58.068zM60.396 46.875H20.071v-1.188h40.326V46.875zM60.396 42.86H20.071v-1.188h40.326V42.86zM60.396 38.853H20.071v-1.189h40.326V38.853zM60.396 34.836H20.071v-1.188h40.326V34.836zM63.188 29.493H17.277v-4.257h45.911V29.493z" fill="#dedede" data-fill-palette-color="accent"></path></g></g></svg></g></svg></g></svg></g></svg></g></svg></g></svg></g><defs></defs></svg><rect width="95.481" height="70.89941655" fill="none" stroke="none" visibility="hidden"></rect></g></svg></g></svg>